<svg width="41" height="39" viewBox="0 0 41 39" fill="none" xmlns="http://www.w3.org/2000/svg">
<path d="M9.22502 22.9729C7.73104 22.9738 6.26501 22.5678 4.98442 21.7983C3.70382 21.0289 2.65705 19.9251 1.95655 18.6055C1.25604 17.2859 0.928264 15.8004 1.00843 14.3086C1.0886 12.8168 1.57368 11.375 2.41156 10.1381C3.24945 8.90117 4.40848 7.9159 5.76416 7.28811C7.11984 6.66031 8.62093 6.41371 10.1062 6.5748C11.5915 6.73588 13.0048 7.29856 14.1944 8.2024C15.3839 9.10624 16.3048 10.3171 16.858 11.7049L19.9 19.3399L12.264 22.3859C11.2976 22.7731 10.2661 22.9724 9.22502 22.9729ZM9.52502 10.8089C8.74549 10.8095 7.98364 11.0411 7.33578 11.4747C6.68792 11.9082 6.18313 12.524 5.88523 13.2444C5.58733 13.9648 5.50969 14.7573 5.66213 15.5217C5.81457 16.2862 6.19025 16.9883 6.74166 17.5393C7.29308 18.0903 7.99548 18.4655 8.76008 18.6173C9.52467 18.7692 10.3171 18.691 11.0372 18.3925C11.7574 18.0941 12.3729 17.5888 12.8059 16.9406C13.2389 16.2924 13.47 15.5304 13.47 14.7509C13.469 13.7057 13.0533 12.7037 12.3143 11.9646C11.5752 11.2256 10.5732 10.8099 9.52802 10.8089H9.52502Z" fill="#2676FF"/>
<path d="M15.6116 38.9341C13.7106 38.9364 11.8682 38.2758 10.4018 37.0659C8.93533 35.8561 7.93664 34.1728 7.57767 32.306C7.2187 30.4391 7.52191 28.5055 8.4351 26.8381C9.34828 25.1707 10.8143 23.8739 12.5806 23.1711L20.1706 20.1431L23.1986 27.7331C23.6921 28.9727 23.8747 30.3142 23.7306 31.6406C23.5864 32.967 23.1198 34.2379 22.3715 35.3425C21.6232 36.4471 20.616 37.3519 19.4377 37.9777C18.2594 38.6036 16.9458 38.9316 15.6116 38.9331V38.9341ZM15.9436 26.4901C15.164 26.4901 14.4018 26.7213 13.7536 27.1544C13.1053 27.5876 12.6001 28.2032 12.3017 28.9235C12.0033 29.6438 11.9253 30.4364 12.0774 31.2011C12.2295 31.9658 12.6049 32.6682 13.1562 33.2195C13.7075 33.7708 14.4099 34.1462 15.1746 34.2983C15.9393 34.4504 16.7319 34.3724 17.4522 34.074C18.1725 33.7756 18.7881 33.2704 19.2213 32.6221C19.6544 31.9739 19.8856 31.2117 19.8856 30.4321C19.8846 29.3869 19.4689 28.3849 18.7299 27.6458C17.9908 26.9068 16.9888 26.4911 15.9436 26.4901Z" fill="#FEB426"/>
<path d="M20.6851 19.029L17.6411 11.393C17.2481 10.3724 17.0603 9.28428 17.0882 8.19098C17.1161 7.09768 17.3592 6.0206 17.8037 5.02135C18.2482 4.0221 18.8854 3.12027 19.6787 2.36745C20.472 1.61463 21.4059 1.02558 22.4271 0.633991C23.4375 0.216121 24.5203 0.00135461 25.6137 0.00195438C26.7071 0.00255414 27.7896 0.218508 28.7996 0.637487C29.8095 1.05647 30.727 1.67026 31.4997 2.44383C32.2724 3.2174 32.8852 4.1356 33.3031 5.14599C33.6953 6.16627 33.8826 7.25383 33.8544 8.34653C33.8262 9.43923 33.5829 10.5157 33.1386 11.5143C32.6942 12.513 32.0574 13.4143 31.2646 14.1668C30.4718 14.9193 29.5386 15.5083 28.5181 15.9L20.6851 19.029ZM25.4721 4.39999C24.6924 4.39999 23.9303 4.63119 23.282 5.06434C22.6338 5.49749 22.1285 6.11315 21.8302 6.83345C21.5318 7.55376 21.4537 8.34636 21.6058 9.11104C21.7579 9.87571 22.1334 10.5781 22.6847 11.1294C23.236 11.6807 23.9384 12.0561 24.703 12.2082C25.4677 12.3603 26.2603 12.2823 26.9806 11.9839C27.7009 11.6856 28.3166 11.1803 28.7497 10.532C29.1829 9.88379 29.4141 9.12164 29.4141 8.34199C29.413 7.29683 28.9974 6.29478 28.2583 5.55575C27.5193 4.81671 26.5172 4.40105 25.4721 4.39999Z" fill="#2BDAD1"/>
<path d="M31.7259 32.497C30.0875 32.4971 28.4858 32.0112 27.1237 31.1007C25.7616 30.1902 24.7002 28.896 24.0739 27.382L21.0459 19.793L28.8299 16.687C29.8345 16.2708 30.9113 16.0567 31.9987 16.0569C33.0861 16.0571 34.1629 16.2716 35.1673 16.6881C36.1718 17.1046 37.0844 17.715 37.8528 18.4844C38.6213 19.2537 39.2306 20.167 39.6459 21.172C40.0365 22.1868 40.2231 23.2686 40.1952 24.3556C40.1673 25.4425 39.9253 26.5133 39.4831 27.5067C39.0408 28.5001 38.4071 29.3965 37.6181 30.1447C36.8291 30.8929 35.9003 31.4781 34.8849 31.867C33.8837 32.283 32.8101 32.4971 31.7259 32.497ZM32.1459 19.98C31.3662 19.9796 30.6038 20.2105 29.9553 20.6434C29.3068 21.0763 28.8012 21.6918 28.5025 22.4121C28.2039 23.1323 28.1255 23.925 28.2774 24.6898C28.4293 25.4546 28.8046 26.1572 29.3558 26.7087C29.907 27.2602 30.6094 27.6358 31.3741 27.7881C32.1388 27.9404 32.9316 27.8624 33.652 27.5641C34.3724 27.2658 34.9882 26.7606 35.4214 26.1123C35.8547 25.464 36.0859 24.7017 36.0859 23.922C36.0848 22.8772 35.6695 21.8754 34.9309 21.1365C34.1922 20.3975 33.1907 19.9816 32.1459 19.98Z" fill="#C822D4"/>
</svg>
