<svg width="320" height="320" viewBox="0 0 320 320" fill="none" xmlns="http://www.w3.org/2000/svg">
<path d="M69.9058 139.034C65.7676 139.034 61.7223 140.264 58.2815 142.567C54.8407 144.871 52.159 148.146 50.5753 151.977C48.9917 155.808 48.5774 160.023 49.3847 164.09C50.192 168.157 52.1848 171.893 55.1109 174.825C58.037 177.757 61.7652 179.754 65.8239 180.563C69.8825 181.372 74.0895 180.957 77.9127 179.37C81.7359 177.783 85.0036 175.096 87.3027 171.648C89.6017 168.2 90.8288 164.147 90.8288 160C90.8222 154.441 88.6157 149.113 84.6933 145.182C80.7709 141.252 75.4529 139.041 69.9058 139.034V139.034Z" fill="#478AFF"/>
<path d="M99.9477 140.893C105.211 140.893 109.479 136.617 109.479 131.342C109.479 126.068 105.211 121.792 99.9477 121.792C94.6839 121.792 90.4167 126.068 90.4167 131.342C90.4167 136.617 94.6839 140.893 99.9477 140.893Z" fill="#478AFF"/>
<path d="M111.683 140.943L111.283 140.067L110.659 140.793C109.096 142.569 107.12 143.932 104.907 144.761L104.282 144.986L104.532 145.612C107.898 153.723 108.324 162.759 105.736 171.152C103.148 179.545 97.7099 186.766 90.3647 191.561C83.0194 196.356 74.2306 198.424 65.5232 197.404C56.8158 196.385 48.7393 192.344 42.6948 185.981C36.6503 179.618 33.0194 171.336 32.432 162.571C31.8445 153.806 34.3376 145.112 39.4787 137.997C44.6199 130.881 52.0846 125.794 60.5777 123.617C69.0709 121.44 78.0566 122.311 85.9758 126.079L86.5629 126.361L86.819 125.735C87.7524 123.559 89.2068 121.648 91.0536 120.171L91.8031 119.545L90.9474 119.101C84.447 115.715 77.2254 113.957 69.8994 113.975C59.9807 113.976 50.3291 117.197 42.3892 123.153C34.4492 129.11 28.648 137.484 25.8536 147.02C23.0592 156.557 23.422 166.743 26.8877 176.056C30.3533 185.369 36.7355 193.306 45.079 198.681C53.4225 204.055 63.2786 206.578 73.1722 205.871C83.0658 205.164 92.4649 201.265 99.9627 194.759C107.461 188.252 112.654 179.487 114.766 169.776C116.877 160.065 115.794 149.929 111.677 140.887L111.683 140.943Z" fill="#478AFF"/>
<path d="M149.12 139.973H139.439V180.027H149.12V139.973Z" fill="#478AFF"/>
<path d="M253.592 139.973H243.911V180.027H253.592V139.973Z" fill="#478AFF"/>
<path d="M221.558 139.034C214.75 139.034 209.491 143.146 208.286 144.279L207.661 139.973H199.604V180.027H209.285V155.775C209.285 151.044 215.73 147.126 220.446 147.126C225.161 147.126 228.703 151.645 228.703 157.027V180.027H238.384V157.985C238.352 147.483 233.83 139.034 221.558 139.034Z" fill="#478AFF"/>
<path d="M279.005 172.749C271.729 172.749 266.92 167.041 266.92 160C266.92 152.959 271.729 147.251 279.005 147.251C285.214 147.251 288.999 153.278 288.999 153.278L296.012 148.578C293.983 145.449 291.64 143.571 288.443 141.631C285.683 139.953 282.521 139.056 279.293 139.034C267.182 139.034 257.932 148.146 257.876 160C257.932 171.854 267.182 180.966 279.293 180.966C282.508 180.937 285.656 180.04 288.405 178.369C291.603 176.435 293.945 174.551 295.975 171.422L288.961 166.722C288.961 166.722 285.214 172.749 279.005 172.749Z" fill="#478AFF"/>
<path d="M174.365 139.034C171.619 138.99 168.891 139.496 166.343 140.523C163.794 141.55 161.476 143.077 159.525 145.015C157.574 146.953 156.029 149.261 154.981 151.806C153.934 154.35 153.404 157.079 153.423 159.831C153.423 171.19 161.905 180.966 174.509 180.966C185.92 180.966 195.27 172.204 195.27 160.075C195.27 146.187 184.396 139.034 174.365 139.034ZM174.484 147.27C180.486 147.27 186.17 152.152 186.17 160.019C186.17 167.717 180.511 172.736 174.459 172.736C167.807 172.736 162.592 167.379 162.592 159.956C162.592 152.696 167.77 147.27 174.515 147.27H174.484Z" fill="#478AFF"/>
</svg>
