<svg width="331" height="320" viewBox="0 0 331 320" fill="none" xmlns="http://www.w3.org/2000/svg">
<path d="M114.319 145.058V138.999C114.319 136.799 112.995 134.849 110.968 133.978L73.5234 118.498V121.859L106.913 135.679C108.072 136.136 108.072 137.795 106.913 138.252L73.5234 152.072V165.559L93.6313 157.217L106.871 162.695C108.03 163.152 108.03 164.812 106.871 165.269L73.5234 179.088V200.461L110.968 184.981C112.995 184.151 114.319 182.159 114.319 179.96V166.057C114.319 163.858 112.995 161.907 110.968 161.036L97.686 155.558L110.968 150.08C112.995 149.249 114.319 147.257 114.319 145.058Z" fill="white"/>
<path d="M133.351 148.751L139.226 171.701L145.805 148.751H152.094L158.301 171.701L164.424 148.751H169.058L161.155 176.432H155.28L148.784 152.57L142.04 176.432H136.082L128.428 148.751H133.351Z" fill="white"/>
<path d="M176.134 163.94C176.299 166.223 176.547 167.385 177.291 168.837C178.657 171.452 181.76 173.153 184.863 173.153C188.628 173.153 191.07 171.369 192.104 167.841H197.235C195.952 173.817 191.442 177.137 184.781 177.137C176.465 177.137 171.169 171.41 171.169 162.446C171.169 153.69 176.465 147.839 184.367 147.839C192.766 147.839 197.317 153.566 197.317 163.857H176.134V163.94ZM190.945 155.474C189.663 153.275 187.057 151.947 184.367 151.947C179.733 151.947 176.795 154.893 176.216 160.205H192.27C192.022 157.757 191.69 156.595 190.945 155.474Z" fill="white"/>
<path d="M201.951 138.211H206.668V152.902C208.613 149.623 211.302 148.088 215.233 148.088C222.059 148.088 226.941 154.064 226.941 162.613C226.941 171.161 222.307 176.972 215.274 176.972C211.426 176.972 208.902 175.436 206.461 171.826V176.39H201.91V138.211H201.951ZM206.75 162.488C206.75 168.547 210.185 173.029 214.653 173.029C218.956 173.029 221.811 168.962 221.811 162.654C221.811 156.056 218.956 151.947 214.488 151.947C210.019 151.947 206.75 156.263 206.75 162.488Z" fill="white"/>
<path d="M235.506 164.771C235.424 169.667 238.526 172.863 243.409 172.863C247.794 172.863 250.981 170.083 250.981 166.265C250.981 162.364 247.96 159.956 243.078 159.956C242.581 159.956 242.167 159.956 241.464 160.04V155.807C242.044 155.807 242.375 155.807 242.706 155.807C247.753 155.807 250.691 153.607 250.691 149.665C250.691 145.971 247.836 143.606 243.533 143.606C238.899 143.606 236.209 146.386 236.044 151.283H230.996C231.327 143.689 235.961 139.289 243.616 139.289C250.691 139.289 255.656 143.357 255.656 149.249C255.656 153.151 252.884 156.761 249.16 157.757C253.711 158.919 256.152 161.99 256.152 166.597C256.152 172.822 250.856 177.221 243.368 177.221C235.547 177.221 230.251 172.157 230.334 164.812C230.293 164.771 235.506 164.771 235.506 164.771Z" fill="white"/>
</svg>
