<svg width="420" height="316" viewBox="0 0 420 316" fill="none" xmlns="http://www.w3.org/2000/svg">
<path d="M145.057 139.672V131.983C145.057 129.191 143.377 126.716 140.805 125.61L93.2925 105.965V110.231L135.66 127.769C137.13 128.349 137.13 130.455 135.66 131.035L93.2925 148.573V165.689L118.807 155.103L135.607 162.055C137.077 162.635 137.077 164.741 135.607 165.321L93.2925 182.859V209.982L140.805 190.337C143.377 189.284 145.057 186.756 145.057 183.965V166.321C145.057 163.53 143.377 161.055 140.805 159.949L123.952 152.997L140.805 146.045C143.377 144.991 145.057 142.463 145.057 139.672Z" fill="white"/>
<path d="M169.207 144.359L176.662 173.484L185.01 144.359H192.99L200.865 173.484L208.635 144.359H214.515L204.487 179.488H197.032L188.79 149.205L180.232 179.488H172.672L162.96 144.359H169.207Z" fill="white"/>
<path d="M223.493 163.635C223.703 166.532 224.017 168.007 224.962 169.85C226.695 173.168 230.632 175.327 234.57 175.327C239.347 175.327 242.445 173.063 243.757 168.586H250.268C248.64 176.17 242.918 180.383 234.465 180.383C223.913 180.383 217.193 173.115 217.193 161.739C217.193 150.627 223.913 143.201 233.94 143.201C244.598 143.201 250.372 150.469 250.372 163.53H223.493V163.635ZM242.287 152.891C240.66 150.1 237.353 148.415 233.94 148.415C228.06 148.415 224.332 152.154 223.597 158.895H243.968C243.653 155.788 243.232 154.313 242.287 152.891Z" fill="white"/>
<path d="M256.252 130.982H262.237V149.626C264.705 145.465 268.117 143.517 273.105 143.517C281.767 143.517 287.962 151.101 287.962 161.95C287.962 172.799 282.082 180.173 273.157 180.173C268.275 180.173 265.072 178.224 261.975 173.642V179.435H256.2V130.982H256.252ZM262.342 161.792C262.342 169.481 266.7 175.169 272.37 175.169C277.83 175.169 281.452 170.008 281.452 162.003C281.452 153.629 277.83 148.415 272.16 148.415C266.49 148.415 262.342 153.892 262.342 161.792Z" fill="white"/>
<path d="M298.83 164.689C298.725 170.903 302.662 174.959 308.857 174.959C314.422 174.959 318.465 171.43 318.465 166.585C318.465 161.634 314.632 158.579 308.437 158.579C307.807 158.579 307.282 158.579 306.39 158.685V153.313C307.125 153.313 307.545 153.313 307.965 153.313C314.37 153.313 318.097 150.521 318.097 145.518C318.097 140.831 314.475 137.829 309.015 137.829C303.135 137.829 299.722 141.357 299.512 147.572H293.107C293.527 137.934 299.407 132.351 309.12 132.351C318.097 132.351 324.397 137.513 324.397 144.991C324.397 149.942 320.88 154.524 316.155 155.788C321.93 157.263 325.027 161.16 325.027 167.006C325.027 174.906 318.307 180.489 308.805 180.489C298.882 180.489 292.162 174.063 292.267 164.741C292.215 164.689 298.83 164.689 298.83 164.689Z" fill="white"/>
</svg>
